<svg xmlns="http://www.w3.org/2000/svg" fill="none" viewBox="0 0 136 136" height="136" width="136">
<circle fill="#BCE4FA" r="68" cy="68" cx="68"></circle>
<path fill="#1C2649" d="M57.5091 58.7228C54.9873 58.7228 52.9585 60.7282 52.9585 63.1336C52.9585 65.578 55.0275 67.5445 57.5091 67.5445V67.6077C60.0309 67.6077 62.0597 65.6023 62.0597 63.1969C62.0597 60.7525 59.9907 58.7861 57.5091 58.7861V58.7228ZM57.5091 55.0633V55C52.841 55 49.1178 58.6966 49.1178 63.1336C49.1178 65.8892 50.5322 68.3051 52.6723 69.7731C48.1637 71.6256 45 75.9556 45 81H48.8408C48.8408 76.326 52.7525 72.5344 57.5746 72.5344C62.3967 72.5344 66.3085 76.326 66.3085 81H70.1492C70.1492 77.7118 68.805 74.7271 66.6201 72.5344H78.4254C83.2475 72.5344 87.1592 76.326 87.1592 81H91C91 75.947 87.8255 71.6109 83.3047 69.7636C85.3999 68.2744 86.7513 65.87 86.7513 63.1969C86.7513 58.6721 82.9376 55.0633 78.36 55.0633V55C73.6918 55 69.9687 58.6966 69.9687 63.1336C69.9687 65.3524 70.8856 67.3508 72.36 68.8116H63.5718C65.0172 67.3434 65.9004 65.3579 65.9004 63.1969C65.9004 58.6721 62.0867 55.0633 57.5091 55.0633ZM78.36 67.6077V67.5445C75.8783 67.5445 73.8094 65.578 73.8094 63.1336C73.8094 60.7282 75.8382 58.7228 78.3599 58.7228V58.7861C80.8416 58.7861 82.9105 60.7525 82.9105 63.1969C82.9105 65.6023 80.8818 67.6077 78.36 67.6077Z" clip-rule="evenodd" fill-rule="evenodd"></path>
</svg>
