<svg xmlns="http://www.w3.org/2000/svg" fill="none" viewBox="0 0 137 136" height="136" width="137">
<ellipse fill="#D1DD72" ry="68" rx="68.5" cy="68" cx="68.5"></ellipse>
<path fill="#1C2649" d="M59.1782 62.7693C56.0468 62.7693 53.5275 65.3384 53.5275 68.42C53.5275 68.6677 53.5435 68.9115 53.5747 69.1506H53.6896C53.6896 69.335 53.6844 69.5181 53.6742 69.6998C54.2603 72.2104 56.53 74.0708 59.1782 74.0708H81.5799C84.7114 74.0708 87.2307 71.5017 87.2307 68.42C87.2307 65.2886 84.6616 62.7693 81.5799 62.7693H59.1782ZM51.4219 75.3681C53.3411 77.5041 56.1226 78.8401 59.1782 78.8401H81.5799C87.3767 78.8401 92 74.1043 92 68.42C92 62.6233 87.2642 58 81.5799 58H59.1782C53.3815 58 48.7582 62.7358 48.7582 68.42C48.7582 68.9232 48.7938 69.4175 48.8627 69.9007C48.4963 72.2668 46.4266 74.0708 44 74.0708V78.8401C46.9512 78.8401 49.6321 77.4961 51.4219 75.3681Z" clip-rule="evenodd" fill-rule="evenodd"></path>
<path fill="#1C2649" d="M61.8564 68.4199C61.8564 69.3939 61.0448 70.2056 60.0708 70.2056C59.0968 70.2056 58.2852 69.3939 58.2852 68.4199C58.2852 67.4459 59.0968 66.6343 60.0708 66.6343C61.126 66.6343 61.8564 67.4459 61.8564 68.4199Z"></path>
<path fill="#1C2649" d="M68.0251 68.4199C68.0251 69.3939 67.2135 70.2056 66.2395 70.2056C65.2655 70.2056 64.4539 69.3939 64.4539 68.4199C64.4539 67.4459 65.2655 66.6343 66.2395 66.6343C67.2135 66.6343 68.0251 67.4459 68.0251 68.4199Z"></path>
<path fill="#1C2649" d="M74.1938 68.4199C74.1938 69.3939 73.3822 70.2056 72.4082 70.2056C71.4342 70.2056 70.6226 69.3939 70.6226 68.4199C70.6226 67.4459 71.4342 66.6343 72.4082 66.6343C73.3822 66.6343 74.1938 67.4459 74.1938 68.4199Z"></path>
</svg>
