<svg xmlns="http://www.w3.org/2000/svg" fill="none" viewBox="0 0 136 136" height="136" width="136">
<circle fill="#DDE7CD" r="68" cy="68" cx="68"></circle>
<path fill="#1C2649" d="M76.9541 55.4017C74.942 55.4017 73.311 57.044 73.311 59.0697C73.311 61.0955 74.942 62.7377 76.9541 62.7377C78.9661 62.7377 80.5971 61.0955 80.5971 59.0697C80.5971 57.0439 78.9661 55.4017 76.9541 55.4017ZM68.9396 58.3481C69.3022 54.2121 72.752 50.9688 76.9541 50.9688C81.3977 50.9688 85 54.5957 85 59.0697C85 62.8139 82.4771 65.9649 79.0495 66.8932C78.6046 73.762 73.4108 79.3294 66.7425 80.2988C65.7364 83.6173 62.6712 86.0312 59.0459 86.0312C54.6023 86.0312 51 82.4043 51 77.9303C51 74.0859 53.6596 70.867 57.2274 70.0371C58.3042 64.0749 63.0004 59.3811 68.9396 58.3481ZM69.7616 62.7047C65.794 63.3667 62.6127 66.3791 61.6774 70.2725C64.1686 71.1401 66.1047 73.2053 66.8065 75.7843C71.025 74.8583 74.2516 71.2535 74.6386 66.8302C72.5063 66.1862 70.7461 64.6756 69.7616 62.7047ZM59.0459 74.2623C57.0339 74.2623 55.4029 75.9045 55.4029 77.9303C55.4029 79.956 57.0339 81.5983 59.0459 81.5983C61.058 81.5983 62.689 79.9561 62.689 77.9303C62.689 75.9045 61.058 74.2623 59.0459 74.2623Z" clip-rule="evenodd" fill-rule="evenodd"></path>
</svg>
