<svg xmlns="http://www.w3.org/2000/svg" fill="none" viewBox="0 0 136 136" height="136" width="136">
<circle fill="#F39690" r="68" cy="68" cx="68"></circle>
<path fill="#1C2649" d="M58.1718 56.0458C56.351 56.0458 54.875 57.5446 54.875 59.3934C54.875 61.2422 56.351 62.741 58.1718 62.741C59.9925 62.741 61.4686 61.2422 61.4686 59.3934C61.4686 57.5446 59.9925 56.0458 58.1718 56.0458ZM50.8906 59.3934C50.8906 55.3101 54.1505 52 58.1718 52C61.5023 52 64.3105 54.2706 65.177 57.3705H70.356C71.2225 54.2706 74.0308 52 77.3613 52C81.3826 52 84.6424 55.3101 84.6424 59.3934C84.6424 63.4767 81.3826 66.7868 77.3613 66.7868C77.2169 66.7868 77.0735 66.7825 76.9312 66.7741L73.465 71.9609C74.4761 73.2304 75.0817 74.8467 75.0817 76.6066C75.0817 80.6899 71.8218 84 67.8006 84C63.7793 84 60.5194 80.6899 60.5194 76.6066C60.5194 74.8643 61.1129 73.2627 62.1059 71.999L58.6579 66.7706C58.4972 66.7814 58.3351 66.7868 58.1718 66.7868C54.1505 66.7868 50.8906 63.4767 50.8906 59.3934ZM62.5061 65.3347L65.3475 69.6433C66.114 69.3648 66.9398 69.2132 67.8006 69.2132C68.6448 69.2132 69.4554 69.3591 70.2094 69.6274L73.061 65.3602C71.7711 64.4 70.804 63.019 70.356 61.4163H65.177C64.733 63.0049 63.779 64.3757 62.5061 65.3347ZM77.3613 56.0458C75.5405 56.0458 74.0645 57.5446 74.0645 59.3934C74.0645 61.2422 75.5405 62.741 77.3613 62.741C79.1821 62.741 80.6581 61.2422 80.6581 59.3934C80.6581 57.5446 79.1821 56.0458 77.3613 56.0458ZM67.8006 73.259C65.9798 73.259 64.5038 74.7578 64.5038 76.6066C64.5038 78.4554 65.9798 79.9542 67.8006 79.9542C69.6213 79.9542 71.0973 78.4554 71.0973 76.6066C71.0973 74.7578 69.6213 73.259 67.8006 73.259Z" clip-rule="evenodd" fill-rule="evenodd"></path>
</svg>
